<svg width="50" height="50" viewBox="0 0 50 50" fill="none" xmlns="http://www.w3.org/2000/svg">
    <path d="M46.32 16.924a12.462 12.462 0 0 0-3.23-4.725c-.49-.449-1.402-.58-1.981-.346l-2.06.853c-6.684-6.018-16.845-6.935-24.6-1.634-7.754 5.3-10.59 15.102-7.41 23.515a2394.6 2394.6 0 0 0-1.541 1.61c-.428.456-.637 1.353-.397 1.971a12.45 12.45 0 0 0 3.23 4.724c.49.45 1.402.58 1.981.346l2.06-.852c6.684 6.017 16.845 6.933 24.599 1.633 7.754-5.3 10.59-15.1 7.41-23.513l1.543-1.61c.427-.456.636-1.353.395-1.973z" fill="#000"/>
    <path d="M12.47 36.467c-.031-.156-.059-.29.03-.35.08-.054.193-.015.261.086.102.154.075.345.075.347l-.004.02.291-.028.002-.011c.003-.01.05-.233-.121-.489a.548.548 0 0 0-.444-.26.437.437 0 0 0-.239.074c-.232.156-.184.42-.144.635.03.162.055.301-.035.362a.165.165 0 0 1-.088.028c-.061 0-.124-.04-.17-.106a.603.603 0 0 1-.075-.398l.003-.02-.28-.01h-.012l-.005.013a.756.756 0 0 0 .124.573c.11.165.263.256.43.255a.457.457 0 0 0 .252-.08c.245-.16.191-.427.15-.641zM14.466 37.955l-.204-.238-.5.423-.436-.513.487-.414.012-.011-.203-.238-1.19 1.011-.013.012.204.238.494-.42.438.514-.483.41-.012.011.203.238 1.19-1.012.013-.01zM15.455 38.916l-.224-.207-.01-.008-1.456.773-.02.011.229.213.009.008.364-.202.381.35-.173.38.239.22.656-1.526.005-.012zm-.352.149a2.352 2.352 0 0 0-.088.166l-.169.375-.264-.243.36-.2c.05-.025.116-.068.161-.098zM16.91 40.138c-.04-.07-.1-.129-.23-.224l-.416-.303-.92 1.259-.01.013.253.185.34-.465.196.143-.091.636-.002.01.283.207.087-.68a.478.478 0 0 0 .004-.078.425.425 0 0 0 .08.008.475.475 0 0 0 .377-.205c.121-.163.137-.348.048-.506zm-.396-.004c.08.06.125.116.136.172.009.05-.008.103-.053.163-.049.067-.108.102-.174.102a.237.237 0 0 1-.142-.052l-.19-.139.264-.363.159.117zM17.731 40.623l-.774 1.356-.008.014.847.485.015.008.128-.224.008-.014-.59-.338.19-.331.452.258.128-.224.008-.015-.451-.258.184-.323.545.312.014.008.128-.224.009-.015-.817-.467-.016-.008zM20.773 42.048l-.557.466-.163-.06.21-.575.005-.016-.295-.108-.535 1.467-.005.016.294.107.232-.633.163.06.124.762.333.121-.163-.935.657-.536.023-.02-.314-.113-.01-.003zM22.3 42.451a.878.878 0 0 0-.197-.022.785.785 0 0 0-.775.624.804.804 0 0 0 .61.985.803.803 0 0 0 .977-.623.8.8 0 0 0-.615-.964zm.302.892c-.058.253-.255.423-.49.425a.474.474 0 0 1-.415-.239.564.564 0 0 1-.055-.406.496.496 0 0 1 .593-.39.5.5 0 0 1 .367.61zM24.44 43.723a.46.46 0 0 0 .293-.403c.019-.202-.06-.37-.219-.46-.07-.04-.151-.06-.312-.076l-.496-.049h-.016l-.15 1.553-.002.016.296.028.016.002.056-.574.242.023.246.594.004.01.322.031.027.003-.271-.631c-.014-.031-.028-.053-.036-.067zm-.464-.685.196.018c.232.023.254.132.243.248-.013.13-.09.205-.214.205-.011 0-.022 0-.033-.002l-.235-.022.043-.447zM25.798 44.16l-.008-.382.504-.01.016-.002-.006-.274-.52.01-.007-.37.627-.014h.017l-.006-.275-.941.02h-.017l.033 1.562v.016l.977-.02h.016l-.006-.275-.679.014zM27.735 42.725l-.302.038h-.012l-.353 1.61-.006.023.31-.038h.011l.082-.41.514-.063.172.365.006.011.321-.04-.738-1.486-.005-.01zm-.144.55c.012-.054.023-.132.03-.186.018.05.045.123.068.173l.176.372-.356.045.082-.404zM30.038 42.255l-.287.07-.016.005.218.88c.012.048.03.108.046.154a1.924 1.924 0 0 0-.132-.142l-.78-.724-.007-.006-.281.07-.016.003.374 1.513.004.017.288-.072.016-.004-.217-.878a1.818 1.818 0 0 0-.047-.155c.038.043.09.101.133.143l.78.723.005.006.28-.07.016-.003-.374-1.513-.003-.017zM32.592 41.989l-.467.208-.164-.369.54-.24.015-.007-.104-.235-.008-.015-.825.366-.015.008.633 1.425.007.016.27-.12.016-.008-.253-.57.452-.201.015-.006-.105-.236-.007-.016zM34.432 41.7l-.578.33-.638-1.115-.008-.014-.258.146-.015.01.774 1.353.01.014.835-.479.015-.008-.129-.223-.008-.014zM34.83 39.845l-.255.187.472 1.58.007.023.253-.185.01-.007-.127-.398.418-.305.339.244.263-.191-1.368-.943-.011-.005zm.559.733-.29.21-.126-.393a1.922 1.922 0 0 0-.066-.176c.042.035.1.085.145.118l.337.241zM36.541 38.39l-.248.227.43.986a2 2 0 0 0 .08.155c-.04-.027-.099-.068-.147-.095l-.929-.517-.01-.007-.25.228 1.478.776.01.006.214-.196.01-.008-.628-1.534-.01-.02zM37.942 37.186a.824.824 0 0 0-.616.293.813.813 0 0 0-.2.593.803.803 0 0 0 .282.549.84.84 0 0 0 .547.205.802.802 0 0 0 .61-.288.804.804 0 0 0-.097-1.157.808.808 0 0 0-.526-.195zm.514.8a.477.477 0 0 1-.473.53.565.565 0 0 1-.366-.14.497.497 0 0 1-.07-.708.479.479 0 0 1 .366-.17c.123 0 .245.046.344.13a.555.555 0 0 1 .2.359zM39.522 36.189a.52.52 0 0 0-.078-.001.461.461 0 0 0-.22-.447c-.17-.111-.357-.12-.51-.021-.07.043-.124.106-.213.241l-.282.43 1.306.855.013.01.173-.263-.483-.316.134-.204.64.059.01.002.177-.27.015-.024-.682-.051zm-.9.092.108-.165c.066-.1.13-.149.198-.149a.239.239 0 0 1 .134.048c.119.078.143.195.065.314l-.13.198-.374-.246z" fill="#fff"/>
    <path d="M35.987 3.84c-.255-.158-.68-.183-.838.072l-8.05 12.943a2.346 2.346 0 0 0-2.727.984l-.953 1.53a2.33 2.33 0 0 0 .755 3.216c1.1.68 2.545.343 3.227-.752l.953-1.53a2.331 2.331 0 0 0-.33-2.878l8.22-12.76c.159-.256-.002-.667-.257-.825zM31.247 1.32a.724.724 0 0 0-.31-.294.742.742 0 0 0-.398-.083.44.44 0 0 0-.364.224L20.84 19.482a.27.27 0 0 0 .008.254.41.41 0 0 0 .39.207.274.274 0 0 0 .224-.142l9.8-18.075a.429.429 0 0 0-.015-.406zM28.647.358a.723.723 0 0 0-.32-.284.733.733 0 0 0-.379-.071.442.442 0 0 0-.376.237l-8.33 18.804a.271.271 0 0 0 .02.251.413.413 0 0 0 .384.196.28.28 0 0 0 .232-.152L28.679.76a.433.433 0 0 0-.032-.402zM21.74 25.06l.01 2.237a4.221 4.221 0 0 1 1.8-.399c.546-.003.956.127 1.235.385.292.267.484.623.575 1.07.09.438.138.977.141 1.617.004.96-.141 1.7-.439 2.223-.296.522-.791.784-1.485.787a2.595 2.595 0 0 1-.975-.196 3.47 3.47 0 0 1-.61-.312.22.22 0 0 0-.321.09l-.106.233a.218.218 0 0 1-.2.128l-.927.004a.22.22 0 0 1-.221-.219l-.033-7.642a.22.22 0 0 1 .219-.22l1.116-.006c.12.002.22.1.22.22zm1.429 6.584c.261-.002.455-.13.58-.388.125-.257.187-.666.185-1.228-.003-.563-.036-.977-.101-1.244s-.15-.444-.255-.529c-.104-.085-.247-.127-.426-.126-.545.002-1.007.079-1.387.23l.013 2.935c.383.235.846.352 1.39.35zM35.095 30.017a7.747 7.747 0 0 1 .084-1.29c.059-.346.15-.64.276-.883.126-.242.3-.434.524-.577.409-.263 1.013-.395 1.812-.398 1.022-.005 1.731.215 2.125.66.393.445.593 1.239.597 2.38.006 1.143-.183 1.927-.565 2.352-.383.427-1.093.642-2.13.646-1.016.006-1.726-.218-2.131-.67-.39-.439-.587-1.179-.592-2.22zm1.791-1.582c-.093.135-.154.319-.182.553a8 8 0 0 0-.04.955c.002.401.022.714.06.936.039.224.109.392.21.508a.647.647 0 0 0 .342.216c.127.03.299.044.515.043.217-.002.38-.01.488-.025a.817.817 0 0 0 .312-.113.508.508 0 0 0 .217-.28c.096-.268.143-.631.14-1.088a12.942 12.942 0 0 0-.031-1.004 2.71 2.71 0 0 0-.098-.535.527.527 0 0 0-.214-.306c-.173-.11-.413-.167-.723-.17-.31-.001-.53.016-.66.053a.603.603 0 0 0-.336.257zM34.615 26.896a.22.22 0 0 0-.287-.209c-.301.099-.784.232-1.155.234l-2.175.01c-1.373.006-2.057.712-2.05 2.119.003.818.222 1.364.657 1.637a.915.915 0 0 0-.52.398 1.27 1.27 0 0 0-.17.677c0 .26.055.49.165.69.11.201.25.345.422.434l-.524.55.004.746c0 .29.05.543.149.759.271.638.844.955 1.716.952l1.68-.007a2.54 2.54 0 0 0 .75-.104c.739-.218 1.105-.76 1.102-1.623l-.003-.636c-.004-.587-.16-1.028-.47-1.32-.312-.293-.744-.438-1.296-.435l-1.825.009a.724.724 0 0 1-.33-.06c-.08-.04-.12-.12-.12-.239 0-.17.148-.257.448-.258l1.377-.006c.627-.003 1.108-.158 1.442-.465.142-.126.258-.282.35-.464.093-.183.156-.36.189-.53a3.228 3.228 0 0 0 .023-.95 2.465 2.465 0 0 1-.017-.156.796.796 0 0 0-.023-.134l-.029-.112a.696.696 0 0 0-.034-.1c-.015-.037-.027-.064-.034-.084l-.04-.089a.305.305 0 0 1-.028-.071l.504-.156a.219.219 0 0 0 .155-.21l-.003-.797zm-4.06 6.11.47.03 1.21-.004c.21.006.359.053.449.142.09.09.134.224.136.402l.002.434c.001.202-.04.356-.121.465-.082.108-.253.162-.515.163l-.918.004c-.24.001-.416-.04-.533-.126-.116-.086-.175-.26-.176-.53l-.004-.98zm1.308-3.053-.627.002c-.477.002-.718-.303-.721-.912-.001-.26.048-.47.147-.625.1-.157.296-.236.587-.238l.594-.002a.96.96 0 0 1 .447.087c.218.118.327.39.328.813.005.581-.248.872-.755.875zM26.41 32.682l-.025-5.488a.22.22 0 0 1 .22-.22l1.127-.005a.22.22 0 0 1 .222.218l.024 5.488a.22.22 0 0 1-.219.22l-1.128.005a.22.22 0 0 1-.221-.218zM26.38 26.13l-.005-1.09a.22.22 0 0 1 .22-.221l1.127-.005a.22.22 0 0 1 .221.217l.005 1.091a.22.22 0 0 1-.218.22l-1.128.006a.217.217 0 0 1-.222-.217zM17.642 32.72l-.024-5.487a.22.22 0 0 1 .219-.22l1.127-.006a.22.22 0 0 1 .222.219l.024 5.487a.22.22 0 0 1-.219.22l-1.128.006a.219.219 0 0 1-.22-.218zM17.613 26.17l-.005-1.091a.219.219 0 0 1 .22-.22l1.127-.005a.22.22 0 0 1 .22.218l.005 1.091a.218.218 0 0 1-.218.22l-1.129.004a.218.218 0 0 1-.22-.217zM12.976 25.059l.01 2.277a4.225 4.225 0 0 1 1.8-.398c.546-.002.957.125 1.234.385.293.267.485.623.576 1.069.09.439.138.977.141 1.617.004.961-.141 1.702-.438 2.223-.296.523-.791.785-1.485.788a2.552 2.552 0 0 1-.975-.196 3.454 3.454 0 0 1-.65-.34.178.178 0 0 0-.26.075l-.138.3a.181.181 0 0 1-.162.104l-.995.004a.177.177 0 0 1-.18-.177l-.034-7.724a.178.178 0 0 1 .178-.18l1.199-.004a.178.178 0 0 1 .179.177zm1.428 6.623c.261-.001.455-.13.58-.387.126-.257.188-.667.186-1.229-.003-.561-.037-.977-.1-1.244-.065-.267-.15-.444-.255-.528a.651.651 0 0 0-.426-.127c-.488.002-.91.064-1.266.185a.178.178 0 0 0-.121.17l.012 2.71a.18.18 0 0 0 .095.156c.363.198.795.297 1.295.294z" fill="#6AB12E"/>
</svg>
